<svg width="180" height="49" viewBox="0 0 180 49" fill="none" xmlns="http://www.w3.org/2000/svg">
<path d="M11.0332 25.1188L24.4995 3.125L37.9657 25.1188L24.4995 32.9638L11.0332 25.1188Z" fill="white"/>
<path d="M24.5007 35.4363L37.5357 27.3438L24.5007 45.8762L11.1582 27.3438L24.5007 35.4363Z" fill="white"/>
<path d="M80.0469 14.6094L76.8906 35H73.5625L71.7656 26.2031L70 35H66.6719L63.5156 14.6094H66.875L68.75 28.3438L70.2344 20.4375H73.3281L74.7656 28.3438L76.6875 14.6094H80.0469ZM83.6575 28.9531C83.8137 29.9531 84.2877 30.7865 85.0794 31.4531C85.8815 32.1094 86.9544 32.4375 88.2981 32.4375C89.3502 32.4375 90.2617 32.276 91.0325 31.9531C91.8137 31.6198 92.4856 31.1823 93.0481 30.6406L94.7044 32.9219C93.7669 33.8594 92.7721 34.5 91.72 34.8438C90.6783 35.1875 89.5377 35.3594 88.2981 35.3594C87.1731 35.3594 86.1262 35.1719 85.1575 34.7969C84.1887 34.4219 83.3502 33.901 82.6419 33.2344C81.9335 32.5573 81.3762 31.7552 80.97 30.8281C80.5742 29.901 80.3762 28.8698 80.3762 27.7344C80.3762 26.6302 80.5585 25.6146 80.9231 24.6875C81.2981 23.75 81.819 22.9427 82.4856 22.2656C83.1627 21.5781 83.97 21.0469 84.9075 20.6719C85.845 20.2865 86.8815 20.0938 88.0169 20.0938C89.194 20.0938 90.2617 20.2969 91.22 20.7031C92.1783 21.099 92.996 21.6771 93.6731 22.4375C94.3606 23.1979 94.8971 24.1302 95.2825 25.2344C95.6679 26.3281 95.8606 27.5677 95.8606 28.9531H83.6575ZM92.2044 26.1094C92.0377 25.1719 91.5533 24.4219 90.7512 23.8594C89.9492 23.2865 89.0377 23 88.0169 23C86.996 23 86.0794 23.2865 85.2669 23.8594C84.4544 24.4219 83.9648 25.1719 83.7981 26.1094H92.2044ZM97.6431 14.6094H100.877V21.75C101.492 21.1979 102.112 20.7865 102.737 20.5156C103.372 20.2344 104.096 20.0938 104.909 20.0938C105.846 20.0938 106.716 20.2865 107.518 20.6719C108.32 21.0469 109.008 21.5729 109.581 22.25C110.154 22.9167 110.607 23.724 110.94 24.6719C111.273 25.6094 111.44 26.6302 111.44 27.7344C111.44 28.849 111.273 29.875 110.94 30.8125C110.607 31.75 110.154 32.5573 109.581 33.2344C109.008 33.901 108.32 34.4219 107.518 34.7969C106.716 35.1719 105.846 35.3594 104.909 35.3594C104.096 35.3594 103.372 35.2135 102.737 34.9219C102.112 34.6302 101.492 34.2083 100.877 33.6562V35H97.6431V14.6094ZM100.877 31.125C101.263 31.5521 101.752 31.8802 102.346 32.1094C102.95 32.3281 103.529 32.4375 104.081 32.4375C105.299 32.4375 106.289 32.0052 107.049 31.1406C107.82 30.276 108.206 29.1406 108.206 27.7344C108.206 26.3281 107.82 25.1875 107.049 24.3125C106.289 23.4375 105.299 23 104.081 23C103.529 23 102.95 23.1146 102.346 23.3438C101.752 23.5625 101.263 23.8854 100.877 24.3125V31.125ZM127.441 29.4688C127.441 30.3646 127.259 31.1771 126.894 31.9062C126.53 32.625 126.04 33.2396 125.426 33.75C124.821 34.2604 124.118 34.6562 123.316 34.9375C122.525 35.2188 121.691 35.3594 120.816 35.3594C119.827 35.3594 118.905 35.224 118.051 34.9531C117.207 34.6823 116.457 34.276 115.801 33.7344C115.155 33.1927 114.629 32.4948 114.222 31.6406C113.816 30.7865 113.571 29.7708 113.488 28.5938L116.519 28.0938C116.624 29.4375 117.061 30.5 117.832 31.2812C118.603 32.0521 119.597 32.4375 120.816 32.4375C121.837 32.4375 122.655 32.1667 123.269 31.625C123.894 31.0833 124.207 30.3646 124.207 29.4688C124.207 28.25 123.811 27.3802 123.019 26.8594C122.228 26.3385 120.842 26.0781 118.863 26.0781V23.1562C119.561 23.1562 120.207 23.0885 120.801 22.9531C121.405 22.8177 121.931 22.6146 122.379 22.3438C122.827 22.0729 123.176 21.75 123.426 21.375C123.686 20.9896 123.816 20.5417 123.816 20.0312C123.816 19.1771 123.561 18.4896 123.051 17.9688C122.54 17.4375 121.795 17.1719 120.816 17.1719C119.535 17.1719 118.551 17.5208 117.863 18.2188C117.186 18.9062 116.847 20.0104 116.847 21.5312H113.769C113.769 20.3333 113.941 19.2812 114.285 18.375C114.629 17.4688 115.108 16.7135 115.722 16.1094C116.337 15.4948 117.077 15.0365 117.941 14.7344C118.806 14.4219 119.764 14.2656 120.816 14.2656C121.691 14.2656 122.504 14.401 123.254 14.6719C124.014 14.9323 124.676 15.3125 125.238 15.8125C125.811 16.3125 126.254 16.9167 126.566 17.625C126.889 18.3333 127.051 19.1354 127.051 20.0312C127.051 20.6042 126.957 21.1458 126.769 21.6562C126.592 22.1667 126.332 22.6198 125.988 23.0156C125.655 23.4115 125.233 23.7344 124.722 23.9844C124.222 24.224 123.665 24.3646 123.051 24.4062C123.759 24.4688 124.384 24.651 124.926 24.9531C125.467 25.2552 125.926 25.6354 126.301 26.0938C126.676 26.5521 126.957 27.0729 127.144 27.6562C127.342 28.2396 127.441 28.8438 127.441 29.4688ZM143.786 29.4062C143.786 31.2604 143.156 32.6562 141.896 33.5938C140.635 34.5312 138.844 35 136.521 35H130.021V14.6094H136.161C137.015 14.6094 137.854 14.6823 138.677 14.8281C139.5 14.9635 140.234 15.224 140.88 15.6094C141.536 15.9948 142.067 16.5365 142.474 17.2344C142.88 17.9219 143.083 18.8177 143.083 19.9219C143.083 20.9531 142.817 21.8958 142.286 22.75C141.765 23.6042 140.974 24.2188 139.911 24.5938C141.213 25 142.182 25.5677 142.817 26.2969C143.463 27.026 143.786 28.0625 143.786 29.4062ZM139.88 20.3438C139.88 19.75 139.765 19.2656 139.536 18.8906C139.317 18.5156 139.031 18.2292 138.677 18.0312C138.323 17.8229 137.927 17.6875 137.489 17.625C137.052 17.5625 136.609 17.5312 136.161 17.5312H133.255V23.1562H136.161C136.609 23.1562 137.052 23.125 137.489 23.0625C137.927 23 138.323 22.8698 138.677 22.6719C139.031 22.4635 139.317 22.1719 139.536 21.7969C139.765 21.4219 139.88 20.9375 139.88 20.3438ZM140.583 29.0781C140.583 28.0573 140.224 27.3021 139.505 26.8125C138.797 26.3229 137.802 26.0781 136.521 26.0781H133.255V32.0938H136.521C137.802 32.0938 138.797 31.849 139.505 31.3594C140.224 30.8594 140.583 30.099 140.583 29.0781ZM154.694 18.5469H150.756V14.6094H154.694V18.5469ZM157.662 35H147.881V32.0938H151.1V23.3594H147.881V20.4375H154.334V32.0938H157.662V35ZM176.351 30.3594C176.185 31.8906 175.58 33.1094 174.539 34.0156C173.507 34.9115 172.216 35.3594 170.664 35.3594C169.81 35.3594 169.028 35.2188 168.32 34.9375C167.612 34.6562 167.007 34.2656 166.507 33.7656C166.007 33.2656 165.617 32.6667 165.336 31.9688C165.065 31.2604 164.929 30.4896 164.929 29.6562V23.3594H161.632V20.4375H164.929V14.6094H168.164V20.4375H174.273V23.3594H168.164V29.6562C168.164 30.5938 168.393 31.2917 168.851 31.75C169.31 32.2083 169.914 32.4375 170.664 32.4375C171.58 32.4375 172.263 32.1719 172.711 31.6406C173.159 31.1094 173.424 30.4688 173.507 29.7188L176.351 30.3594Z" fill="white"/>
</svg>
