<svg width="18" height="15" viewBox="0 0 18 15" fill="none" xmlns="http://www.w3.org/2000/svg">
<path d="M14.8327 0.833008H3.16602C2.50297 0.833008 1.86709 1.0964 1.39825 1.56524C0.929408 2.03408 0.666016 2.66997 0.666016 3.33301V11.6663C0.666016 12.3294 0.929408 12.9653 1.39825 13.4341C1.86709 13.9029 2.50297 14.1663 3.16602 14.1663H14.8327C15.4957 14.1663 16.1316 13.9029 16.6005 13.4341C17.0693 12.9653 17.3327 12.3294 17.3327 11.6663V3.33301C17.3327 2.66997 17.0693 2.03408 16.6005 1.56524C16.1316 1.0964 15.4957 0.833008 14.8327 0.833008V0.833008ZM14.491 2.49967L9.59102 7.39967C9.51355 7.47778 9.42138 7.53978 9.31983 7.58208C9.21828 7.62439 9.10936 7.64617 8.99935 7.64617C8.88934 7.64617 8.78042 7.62439 8.67887 7.58208C8.57732 7.53978 8.48515 7.47778 8.40768 7.39967L3.50768 2.49967H14.491ZM15.666 11.6663C15.666 11.8874 15.5782 12.0993 15.4219 12.2556C15.2657 12.4119 15.0537 12.4997 14.8327 12.4997H3.16602C2.945 12.4997 2.73304 12.4119 2.57676 12.2556C2.42048 12.0993 2.33268 11.8874 2.33268 11.6663V3.67467L7.23268 8.57467C7.70143 9.04284 8.33685 9.30581 8.99935 9.30581C9.66185 9.30581 10.2973 9.04284 10.766 8.57467L15.666 3.67467V11.6663Z" fill="#F8F8FA" fill-opacity="0.2"/>
</svg>
