<svg width="40" height="41" viewBox="0 0 40 41" fill="none" xmlns="http://www.w3.org/2000/svg">
<g clip-path="url(#clip0_24791_369)">
<path d="M38.7906 10.6453C37.7414 6.77969 33.7211 2.75938 29.8555 1.71016C27.4859 1.11875 24.3102 0.510156 20 0.5C15.6906 0.510937 12.5148 1.11875 10.1453 1.71016C6.27969 2.76016 2.25938 6.77969 1.21016 10.6453C0.61875 13.0148 0.0109375 16.1906 0 20.5C0.0109375 24.8102 0.61875 27.9859 1.21016 30.3555C2.25938 34.2211 6.27969 38.2406 10.1453 39.2906C12.5148 39.882 15.6922 40.4898 20 40.5008C24.3102 40.4898 27.4859 39.882 29.8555 39.2906C33.7211 38.2406 37.7414 34.2211 38.7906 30.3555C39.382 27.9859 39.9898 24.8086 40.0008 20.5C39.9898 16.1906 39.382 13.0148 38.7906 10.6453Z" fill="#F6E8FC" fill-opacity="0.1"/>
<path d="M19.193 7.21875C16.7249 7.21875 14.3122 7.95068 12.2601 9.32196C10.208 10.6933 8.60864 12.6423 7.66432 14.9226C6.71999 17.2029 6.47311 19.712 6.9549 22.1327C7.43669 24.5533 8.6255 26.7767 10.371 28.5216C12.1165 30.2666 14.3402 31.4547 16.761 31.9357C19.1818 32.4167 21.6908 32.1691 23.9709 31.224C26.2509 30.279 28.1994 28.679 29.5701 26.6265C30.9407 24.574 31.6719 22.1611 31.6711 19.693C31.6705 16.3841 30.3555 13.211 28.0154 10.8717C25.6753 8.53232 22.5018 7.21834 19.193 7.21875ZM26.3625 12.5312C27.9832 14.1433 29.0068 16.2591 29.2648 18.5305H25.1859C25.0533 16.6004 24.5788 14.7093 23.7844 12.9453C23.3136 11.896 22.7341 10.8989 22.0555 9.97031C23.683 10.4461 25.1643 11.3244 26.3625 12.5242V12.5312ZM19.193 10.1625C20.2062 11.2707 21.0357 12.5337 21.65 13.9039C22.3086 15.3665 22.7108 16.9315 22.8391 18.5305H15.5469C15.8006 15.4141 17.0829 12.4705 19.1922 10.1625H19.193ZM12.0242 12.5312C13.2199 11.3267 14.7002 10.4434 16.3281 9.96328C15.6567 10.8825 15.0823 11.8687 14.6141 12.9062C13.8126 14.6796 13.3348 16.5819 13.2031 18.5234H9.12188C9.37993 16.2521 10.4035 14.1363 12.0242 12.5242V12.5312ZM12.0242 26.8695C10.4035 25.2574 9.37993 23.1416 9.12188 20.8703H13.2031C13.3363 22.8121 13.8157 24.7145 14.6188 26.4875C15.0859 27.5224 15.6588 28.5063 16.3281 29.4234C14.7011 28.945 13.2209 28.0642 12.0242 26.8625V26.8695ZM19.193 29.2383C17.082 26.9285 15.7993 23.9822 15.5469 20.8633H22.8383C22.71 22.4622 22.3078 24.0272 21.6492 25.4898C21.0352 26.86 20.206 28.123 19.193 29.2313V29.2383ZM26.3625 26.8695C25.1651 28.0719 23.6837 28.9527 22.0555 29.4305C22.7341 28.5019 23.3136 27.5048 23.7844 26.4555C24.5786 24.6914 25.0532 22.8003 25.1859 20.8703H29.2648C29.0053 23.1391 27.9818 25.2522 26.3625 26.8625V26.8695Z" fill="#957FEF"/>
<path d="M26.9207 21.0566C25.662 21.0566 24.4316 21.4299 23.385 22.1292C22.3385 22.8285 21.5228 23.8224 21.0411 24.9853C20.5594 26.1482 20.4334 27.4278 20.6789 28.6623C20.9245 29.8968 21.5306 31.0307 22.4206 31.9208C23.3107 32.8108 24.4446 33.4169 25.6791 33.6625C26.9136 33.908 28.1932 33.782 29.3561 33.3003C30.519 32.8186 31.5129 32.003 32.2122 30.9564C32.9115 29.9098 33.2848 28.6794 33.2848 27.4207C33.2829 25.7334 32.6118 24.1158 31.4187 22.9227C30.2256 21.7296 28.608 21.0585 26.9207 21.0566Z" fill="url(#paint0_linear_24791_369)"/>
<path d="M26.3338 26.5662C26.4901 26.721 26.7014 26.8075 26.9213 26.8068C27.3287 26.8066 27.727 26.9272 28.0659 27.1532C28.4049 27.3793 28.6692 27.7007 28.8255 28.0769C28.9818 28.4531 29.0232 28.8672 28.9443 29.2669C28.8654 29.6665 28.6698 30.0339 28.3823 30.3225C28.1451 30.5583 27.8546 30.7335 27.5354 30.8334V31.2162C27.5354 31.3791 27.4707 31.5353 27.3555 31.6504C27.2404 31.7656 27.0842 31.8303 26.9213 31.8303C26.7585 31.8303 26.6023 31.7656 26.4871 31.6504C26.372 31.5353 26.3073 31.3791 26.3073 31.2162V30.8334C25.8877 30.7039 25.5208 30.4432 25.2604 30.0897C24.9999 29.7361 24.8597 29.3084 24.8604 28.8693C24.8604 28.7065 24.9251 28.5503 25.0403 28.4351C25.1554 28.32 25.3116 28.2553 25.4745 28.2553C25.6373 28.2553 25.7935 28.32 25.9087 28.4351C26.0238 28.5503 26.0885 28.7065 26.0885 28.8693C26.0892 29.0906 26.1773 29.3027 26.3338 29.4592C26.4939 29.6091 26.7053 29.6921 26.9246 29.6912C27.1439 29.6904 27.3546 29.6057 27.5135 29.4545C27.6679 29.2989 27.7544 29.0885 27.7542 28.8693C27.7546 28.7599 27.7333 28.6514 27.6916 28.5501C27.6499 28.4489 27.5886 28.3569 27.5111 28.2795C27.4337 28.2021 27.3418 28.1408 27.2405 28.0991C27.1393 28.0574 27.0308 28.0361 26.9213 28.0365C26.514 28.0367 26.1156 27.9162 25.7767 27.6901C25.4378 27.4641 25.1735 27.1427 25.0172 26.7665C24.8608 26.3903 24.8195 25.9762 24.8984 25.5765C24.9773 25.1768 25.1729 24.8095 25.4604 24.5209C25.6978 24.2856 25.9883 24.1106 26.3073 24.0107V23.6248C26.3073 23.4619 26.372 23.3058 26.4871 23.1906C26.6023 23.0754 26.7585 23.0107 26.9213 23.0107C27.0842 23.0107 27.2404 23.0754 27.3555 23.1906C27.4707 23.3058 27.5354 23.4619 27.5354 23.6248V24.0084C27.9544 24.1397 28.3207 24.4009 28.5813 24.7543C28.8419 25.1077 28.9831 25.5349 28.9846 25.974C28.9846 26.1369 28.9199 26.2931 28.8048 26.4082C28.6896 26.5234 28.5334 26.5881 28.3706 26.5881C28.2077 26.5881 28.0515 26.5234 27.9364 26.4082C27.8212 26.2931 27.7565 26.1369 27.7565 25.974C27.7562 25.8371 27.7221 25.7023 27.6573 25.5817C27.5924 25.461 27.4988 25.3582 27.3848 25.2824C27.2707 25.2066 27.1397 25.1601 27.0034 25.147C26.8671 25.1338 26.7296 25.1546 26.6032 25.2073C26.4768 25.26 26.3653 25.343 26.2787 25.4491C26.192 25.5552 26.1329 25.681 26.1065 25.8154C26.0801 25.9498 26.0872 26.0886 26.1273 26.2196C26.1674 26.3505 26.2391 26.4696 26.3362 26.5662H26.3338Z" fill="url(#paint1_linear_24791_369)"/>
</g>
<defs>
<linearGradient id="paint0_linear_24791_369" x1="31.4191" y1="31.9191" x2="22.4223" y2="22.9223" gradientUnits="userSpaceOnUse">
<stop stop-color="#34344F"/>
<stop offset="0.54" stop-color="#353551"/>
<stop offset="1" stop-color="#666684"/>
</linearGradient>
<linearGradient id="paint1_linear_24791_369" x1="29.2518" y1="29.7514" x2="24.5909" y2="25.0904" gradientUnits="userSpaceOnUse">
<stop stop-color="#CBF4B4"/>
<stop offset="0.57" stop-color="white"/>
<stop offset="1" stop-color="white"/>
</linearGradient>
<clipPath id="clip0_24791_369">
<rect width="40" height="40" fill="white" transform="translate(0 0.5)"/>
</clipPath>
</defs>
</svg>
