<svg width="40" height="41" viewBox="0 0 40 41" fill="none" xmlns="http://www.w3.org/2000/svg">
<g clip-path="url(#clip0_24791_357)">
<path d="M38.7906 10.6453C37.7414 6.77969 33.7211 2.75938 29.8555 1.71016C27.4859 1.11875 24.3102 0.510156 20 0.5C15.6898 0.510937 12.5141 1.11875 10.1445 1.71016C6.27969 2.76016 2.25938 6.77969 1.21016 10.6453C0.61875 13.0148 0.0109375 16.1906 0 20.5C0.0109375 24.8102 0.61875 27.9859 1.21016 30.3555C2.26016 34.2211 6.27969 38.2406 10.1453 39.2906C12.5148 39.882 15.6922 40.4898 20.0008 40.5008C24.3102 40.4898 27.4859 39.882 29.8555 39.2906C33.7211 38.2406 37.7414 34.2211 38.7906 30.3555C39.382 27.9859 39.9898 24.8086 40.0008 20.5C39.9898 16.1906 39.382 13.0148 38.7906 10.6453Z" fill="#F6E8FC" fill-opacity="0.1"/>
<path d="M6.84765 31.4254C6.94375 31.9207 7.39453 32.3996 7.89062 32.509C8.72614 32.6757 9.58635 32.6757 10.4219 32.509C10.9164 32.3996 11.3687 31.9207 11.4648 31.4254C11.5509 30.8623 11.594 30.2935 11.5937 29.7238C11.594 29.1545 11.5509 28.5859 11.4648 28.023C11.3687 27.527 10.918 27.0481 10.4219 26.9387C9.58625 26.773 8.72624 26.773 7.89062 26.9387C7.39687 27.0481 6.94375 27.527 6.84765 28.023C6.67578 29.1507 6.67578 30.2978 6.84765 31.4254Z" fill="url(#paint0_linear_24791_357)"/>
<path d="M6.84765 31.4254C6.94375 31.9207 7.39453 32.3996 7.89062 32.509C8.72614 32.6757 9.58635 32.6757 10.4219 32.509C10.9164 32.3996 11.3687 31.9207 11.4648 31.4254C11.5509 30.8623 11.594 30.2935 11.5937 29.7238C11.594 29.1545 11.5509 28.5859 11.4648 28.023C11.3687 27.527 10.918 27.0481 10.4219 26.9387C9.58625 26.773 8.72624 26.773 7.89062 26.9387C7.39687 27.0481 6.94375 27.527 6.84765 28.023C6.67578 29.1507 6.67578 30.2978 6.84765 31.4254Z" fill="#957FEF"/>
<path d="M21.3069 31.4254C21.403 31.9207 21.8538 32.3996 22.3499 32.509C23.1854 32.6757 24.0456 32.6757 24.8811 32.509C25.3757 32.3996 25.828 31.9207 25.9241 31.4254C25.9843 31.1231 26.0593 28.6012 26.053 28.0441C26.0593 27.4871 25.9843 24.9652 25.9241 24.6637C25.828 24.1676 25.3772 23.6887 24.8811 23.5793C24.0455 23.4137 23.1855 23.4137 22.3499 23.5793C21.8561 23.6887 21.403 24.1676 21.3069 24.6637C21.2468 24.9652 21.1726 27.4871 21.178 28.0441C21.1835 28.6012 21.2507 31.1246 21.3069 31.4254Z" fill="url(#paint1_linear_24791_357)"/>
<path d="M21.3069 31.4254C21.403 31.9207 21.8538 32.3996 22.3499 32.509C23.1854 32.6757 24.0456 32.6757 24.8811 32.509C25.3757 32.3996 25.828 31.9207 25.9241 31.4254C25.9843 31.1231 26.0593 28.6012 26.053 28.0441C26.0593 27.4871 25.9843 24.9652 25.9241 24.6637C25.828 24.1676 25.3772 23.6887 24.8811 23.5793C24.0455 23.4137 23.1855 23.4137 22.3499 23.5793C21.8561 23.6887 21.403 24.1676 21.3069 24.6637C21.2468 24.9652 21.1726 27.4871 21.178 28.0441C21.1835 28.6012 21.2507 31.1246 21.3069 31.4254Z" fill="#957FEF"/>
<path d="M14.0765 31.4254C14.1726 31.9207 14.6234 32.3996 15.1195 32.509C15.955 32.6757 16.8152 32.6757 17.6508 32.509C18.1445 32.3996 18.5976 31.9207 18.6937 31.4254C18.7539 31.1231 18.8281 26.9215 18.8226 26.3645C18.8172 25.8074 18.7539 21.6059 18.6937 21.3043C18.5976 20.8082 18.1469 20.3293 17.6508 20.2199C16.8151 20.0543 15.9551 20.0543 15.1195 20.2199C14.625 20.3293 14.1726 20.8082 14.0765 21.3043C14.0156 21.6059 13.9414 25.8074 13.9476 26.3645C13.9414 26.9215 14.0156 31.1246 14.0765 31.4254Z" fill="url(#paint2_linear_24791_357)"/>
<path d="M14.0765 31.4254C14.1726 31.9207 14.6234 32.3996 15.1195 32.509C15.955 32.6757 16.8152 32.6757 17.6508 32.509C18.1445 32.3996 18.5976 31.9207 18.6937 31.4254C18.7539 31.1231 18.8281 26.9215 18.8226 26.3645C18.8172 25.8074 18.7539 21.6059 18.6937 21.3043C18.5976 20.8082 18.1469 20.3293 17.6508 20.2199C16.8151 20.0543 15.9551 20.0543 15.1195 20.2199C14.625 20.3293 14.1726 20.8082 14.0765 21.3043C14.0156 21.6059 13.9414 25.8074 13.9476 26.3645C13.9414 26.9215 14.0156 31.1246 14.0765 31.4254Z" fill="#957FEF"/>
<path d="M28.5355 31.4254C28.6316 31.9207 29.0824 32.3996 29.5785 32.509C30.414 32.6757 31.2742 32.6757 32.1097 32.509C32.6035 32.3996 33.0566 31.9207 33.1527 31.4254C33.2129 31.1231 33.2879 24.7145 33.2816 24.1598C33.2754 23.6051 33.2129 17.1941 33.1527 16.8941C33.0566 16.3988 32.6058 15.9191 32.1097 15.8098C31.2741 15.6441 30.4141 15.6441 29.5785 15.8098C29.084 15.9191 28.6316 16.3988 28.5355 16.8941C28.4754 17.1957 28.4004 23.6043 28.4066 24.1598C28.4004 24.7184 28.4754 31.1246 28.5355 31.4254Z" fill="#957FEF"/>
<path d="M30.8451 8.36644C30.5201 8.36662 30.1998 8.4448 29.9113 8.59441C29.6227 8.74402 29.3743 8.96068 29.1868 9.22621C28.9994 9.49173 28.8784 9.79836 28.834 10.1203C28.7896 10.4423 28.8232 10.7703 28.9318 11.0766L24.4178 16.2032C24.101 16.0672 23.7549 16.0141 23.412 16.0488C23.0691 16.0835 22.7407 16.2049 22.4576 16.4016L18.3998 13.8914C18.3305 13.3831 18.0714 12.9199 17.6746 12.5948C17.2778 12.2696 16.7727 12.1067 16.2607 12.1386C15.7487 12.1706 15.2677 12.3951 14.9144 12.767C14.5611 13.139 14.3616 13.6308 14.356 14.1438C14.356 14.1977 14.356 14.25 14.3631 14.3L9.649 19.3391C9.21242 19.2299 8.75194 19.2688 8.33986 19.4497C7.92778 19.6306 7.58743 19.9432 7.37225 20.3384C7.15707 20.7337 7.07924 21.1892 7.15098 21.6335C7.22271 22.0777 7.43996 22.4856 7.7686 22.793C8.09725 23.1005 8.51869 23.2901 8.96675 23.3321C9.41482 23.374 9.86414 23.266 10.2442 23.025C10.6242 22.784 10.9134 22.4236 11.0665 22.0004C11.2195 21.5771 11.2276 21.1151 11.0896 20.6868L15.5029 15.9688C15.8453 16.1335 16.2271 16.1988 16.6048 16.1574C16.9825 16.116 17.341 15.9694 17.6396 15.7344L21.5888 18.1782C21.6264 18.7003 21.8641 19.1877 22.2524 19.5388C22.6406 19.89 23.1495 20.0776 23.6727 20.0627C24.196 20.0478 24.6933 19.8315 25.0609 19.4588C25.4285 19.0861 25.6381 18.5859 25.6459 18.0625C25.6457 17.9768 25.6399 17.8912 25.6287 17.8063L30.4123 12.3766C30.6914 12.4392 30.9807 12.4421 31.261 12.3851C31.5414 12.3281 31.8066 12.2126 32.0392 12.046C32.2718 11.8795 32.4666 11.6657 32.6108 11.4186C32.755 11.1715 32.8454 10.8968 32.8761 10.6123C32.9068 10.3279 32.877 10.0402 32.7888 9.76804C32.7006 9.4959 32.5558 9.24546 32.3641 9.03314C32.1723 8.82082 31.9379 8.65139 31.6761 8.53596C31.4144 8.42053 31.1312 8.3617 30.8451 8.36331V8.36644Z" fill="url(#paint3_linear_24791_357)"/>
</g>
<defs>
<linearGradient id="paint0_linear_24791_357" x1="11.3187" y1="31.8863" x2="6.99375" y2="27.5613" gradientUnits="userSpaceOnUse">
<stop stop-color="#FE7838"/>
<stop offset="0.54" stop-color="#FE7636"/>
<stop offset="1" stop-color="#FFAD8A"/>
</linearGradient>
<linearGradient id="paint1_linear_24791_357" x1="26.6179" y1="31.0465" x2="20.6132" y2="25.0418" gradientUnits="userSpaceOnUse">
<stop stop-color="#FE7838"/>
<stop offset="0.54" stop-color="#FE7636"/>
<stop offset="1" stop-color="#FFAD8A"/>
</linearGradient>
<linearGradient id="paint2_linear_24791_357" x1="20.2273" y1="30.2066" x2="12.5429" y2="22.5223" gradientUnits="userSpaceOnUse">
<stop stop-color="#FE7838"/>
<stop offset="0.54" stop-color="#FE7636"/>
<stop offset="1" stop-color="#FFAD8A"/>
</linearGradient>
<linearGradient id="paint3_linear_24791_357" x1="24.3498" y1="20.2024" x2="15.8717" y2="11.7243" gradientUnits="userSpaceOnUse">
<stop stop-color="#34344F"/>
<stop offset="0.26" stop-color="#3B3B57"/>
<stop offset="0.66" stop-color="#50506D"/>
<stop offset="1" stop-color="#666684"/>
</linearGradient>
<clipPath id="clip0_24791_357">
<rect width="40" height="40" fill="white" transform="translate(0 0.5)"/>
</clipPath>
</defs>
</svg>
